<svg xmlns="http://www.w3.org/2000/svg" viewBox="0 0 24 24" width="512" height="512">
  <path d="M6.5 8 C3 8 3 12 7.2 12.4" fill="none" stroke="#0ea5e9" stroke-width="1.7" stroke-linecap="round"/><path d="M17.5 8 C21 8 21 12 16.8 12.4" fill="none" stroke="#0ea5e9" stroke-width="1.7" stroke-linecap="round"/><g transform="translate(6.96,0.96) scale(0.42000000000000004)"><path d="M7.6 13.5 L4.6 5 Q12 2.8 19.4 5 L16.4 13.5 Z" fill="#f8fafc" stroke="rgba(0,0,0,.16)" stroke-width="0.7" stroke-linejoin="round"/><path d="M12 13.5 V4 M9.8 13.5 L7.6 4.7 M14.2 13.5 L16.4 4.7" fill="none" stroke="rgba(0,0,0,.14)" stroke-width="0.7"/><ellipse cx="12" cy="16" rx="4.4" ry="3.6" fill="#eef2f7" stroke="rgba(0,0,0,.14)" stroke-width="0.7"/></g><path d="M6.4 7 H17.6 V9.2 C17.6 12.8 15.1 15 12 15 C8.9 15 6.4 12.8 6.4 9.2 Z" fill="#0ea5e9"/><rect x="11" y="15" width="2" height="2.6" fill="#0369a1"/><path d="M9 17.4 H15 L15.8 20 H8.2 Z" fill="#0369a1"/><rect x="7.2" y="19.7" width="9.6" height="1.9" rx="0.7" fill="#0ea5e9"/>
</svg>
