<svg xmlns="http://www.w3.org/2000/svg" viewBox="0 0 24 24" width="512" height="512">
  <path d="M6.5 8 C3 8 3 12 7.2 12.4" fill="none" stroke="#0ea5e9" stroke-width="1.7" stroke-linecap="round"/><path d="M17.5 8 C21 8 21 12 16.8 12.4" fill="none" stroke="#0ea5e9" stroke-width="1.7" stroke-linecap="round"/><g transform="translate(6.96,0.96) scale(0.42000000000000004)"><circle cx="12" cy="12" r="10" fill="#e6ec2e"/><circle cx="12" cy="6.5" r="1.5" fill="#8f951a"/><circle cx="8" cy="10" r="1.5" fill="#8f951a"/><circle cx="16" cy="10" r="1.5" fill="#8f951a"/><circle cx="9.5" cy="14.5" r="1.5" fill="#8f951a"/><circle cx="14.5" cy="14.5" r="1.5" fill="#8f951a"/></g><path d="M6.4 7 H17.6 V9.2 C17.6 12.8 15.1 15 12 15 C8.9 15 6.4 12.8 6.4 9.2 Z" fill="#0ea5e9"/><rect x="11" y="15" width="2" height="2.6" fill="#0369a1"/><path d="M9 17.4 H15 L15.8 20 H8.2 Z" fill="#0369a1"/><rect x="7.2" y="19.7" width="9.6" height="1.9" rx="0.7" fill="#0ea5e9"/>
</svg>
