<svg xmlns="http://www.w3.org/2000/svg" viewBox="0 0 24 24" width="512" height="512">
  <path d="M6.5 8 C3 8 3 12 7.2 12.4" fill="none" stroke="#f43f5e" stroke-width="1.7" stroke-linecap="round"/><path d="M17.5 8 C21 8 21 12 16.8 12.4" fill="none" stroke="#f43f5e" stroke-width="1.7" stroke-linecap="round"/><g transform="translate(6.96,0.96) scale(0.42000000000000004)"><circle cx="12" cy="12" r="10" fill="#f8fafc" stroke="rgba(0,0,0,.14)" stroke-width="0.8"/><path d="M12 2 Q7.5 12 12 22 M12 2 Q16.5 12 12 22 M2.5 8.5 Q12 10.5 21.5 8.5 M2.8 15.5 Q12 13.5 21.2 15.5" fill="none" stroke="rgba(37,99,235,.55)" stroke-width="1.1" stroke-linecap="round"/></g><path d="M6.4 7 H17.6 V9.2 C17.6 12.8 15.1 15 12 15 C8.9 15 6.4 12.8 6.4 9.2 Z" fill="#f43f5e"/><rect x="11" y="15" width="2" height="2.6" fill="#be123c"/><path d="M9 17.4 H15 L15.8 20 H8.2 Z" fill="#be123c"/><rect x="7.2" y="19.7" width="9.6" height="1.9" rx="0.7" fill="#f43f5e"/>
</svg>
